<svg xmlns="http://www.w3.org/2000/svg" height="48" viewBox="0 -960 960 960" width="48"><path d="M78-99q-11.483 0-19.894-5.625Q49.696-110.25 46-118q-5.167-6.6-5.583-16.8Q40-145 46-154l403-695q5-9 13.5-13.5T480-867q9 0 17.5 4.5T512-849l403 695q5 9 4.583 19.2-.416 10.2-4.583 16.8-5.044 7.4-13.522 13.2Q893-99 883-99H78Zm63-73h678L480-757 141-172Zm343.86-52q15.14 0 25.64-10.658t10.5-25.5Q521-275 510.325-286q-10.676-11-25.816-11-15.141 0-25.825 10.95Q448-275.099 448-259.825q0 14.85 10.86 25.337Q469.719-224 484.86-224Zm0-122q15.14 0 25.64-10.625T521-383v-153q0-14.775-10.675-25.388Q499.649-572 484.509-572q-15.141 0-25.825 10.612Q448-550.775 448-536v153q0 15.75 10.86 26.375Q469.719-346 484.86-346ZM480-465Z"/></svg>